<svg width="183" height="93" viewBox="0 0 183 93" fill="none" xmlns="http://www.w3.org/2000/svg">
<path d="M4.5 88L2 90.5H36.5H41.5H72.5H104.5H147.5L169.5 88L166.5 77.5H162V73L158 69V64.5L162 66.5V63L160 60V54V47.5L151.5 42H147.5L142.5 35H137L139 29.5L142.5 26.5V21L134.5 14.5L132.5 11L128 5L125.5 11H123L113.5 3L112 11L110 17.5L104.5 21V23H101L98 29.5L96 35H92L88 32L83 42L81 47.5L74.5 54V60L72.5 63V64.5H69L65 66.5L60.5 69L55.5 71L52 69L46.5 73L41.5 69L38.5 63L33 66.5L26.5 71L24 73L21.5 77.5L19.5 81L14.5 83L11.5 86.5H9.5L7 88H4.5Z" stroke="black" stroke-width="1.5"/>
<path d="M172.5 63.5L167.5 73.5L165 68.5V63.5L167.5 54.5L170 50L172.5 44H181L179 50H176L174 56L172.5 63.5Z" stroke="black" stroke-width="1.5"/>
<circle cx="97" cy="59" r="5" fill="#204E2F"/>
</svg>
